HIERARCHY
ROOT Hips
{
	OFFSET 0.00000 0.00000 0.00000
	CHANNELS 6 Xposition Yposition Zposition Zrotation Yrotation Xrotation 
	JOINT LHipJoint
	{
		OFFSET 0 0 0
		CHANNELS 3 Zrotation Yrotation Xrotation
		JOINT LeftUpLeg
		{
			OFFSET 1.30186 -1.90722 0.65024
			CHANNELS 3 Zrotation Yrotation Xrotation
			JOINT LeftLeg
			{
				OFFSET 2.56413 -7.04489 0.00000
				CHANNELS 3 Zrotation Yrotation Xrotation
				JOINT LeftFoot
				{
					OFFSET 2.79321 -7.67428 0.00000
					CHANNELS 3 Zrotation Yrotation Xrotation
					JOINT LeftToeBase
					{
						OFFSET 0.15723 -0.43198 2.08537
						CHANNELS 3 Zrotation Yrotation Xrotation
						End Site
						{
							OFFSET 0.00000 -0.00000 1.07411
						}
					}
				}
			}
		}
	}
	JOINT RHipJoint
	{
		OFFSET 0 0 0
		CHANNELS 3 Zrotation Yrotation Xrotation
		JOINT RightUpLeg
		{
			OFFSET -1.28627 -1.90723 0.65024
			CHANNELS 3 Zrotation Yrotation Xrotation
			JOINT RightLeg
			{
				OFFSET -2.56567 -7.04913 0.00000
				CHANNELS 3 Zrotation Yrotation Xrotation
				JOINT RightFoot
				{
					OFFSET -2.75597 -7.57198 0.00000
					CHANNELS 3 Zrotation Yrotation Xrotation
					JOINT RightToeBase
					{
						OFFSET -0.17500 -0.48081 2.22901
						CHANNELS 3 Zrotation Yrotation Xrotation
						End Site
						{
							OFFSET -0.00000 -0.00000 1.14762
						}
					}
				}
			}
		}
	}
	JOINT LowerBack
	{
		OFFSET 0 0 0
		CHANNELS 3 Zrotation Yrotation Xrotation
		JOINT Spine
		{
			OFFSET -0.04522 2.07467 -0.16566
			CHANNELS 3 Zrotation Yrotation Xrotation
			JOINT Spine1
			{
				OFFSET -0.01178 2.08825 -0.05393
				CHANNELS 3 Zrotation Yrotation Xrotation
				JOINT Neck
				{
					OFFSET 0 0 0
					CHANNELS 3 Zrotation Yrotation Xrotation
					JOINT Neck1
					{
						OFFSET -0.05182 1.80489 0.16014
						CHANNELS 3 Zrotation Yrotation Xrotation
						JOINT Head
						{
							OFFSET 0.14739 1.78840 -0.33342
							CHANNELS 3 Zrotation Yrotation Xrotation
							End Site
							{
								OFFSET 0.04364 1.83899 -0.13460
							}
						}
					}
				}
				JOINT LeftShoulder
				{
					OFFSET 0 0 0
					CHANNELS 3 Zrotation Yrotation Xrotation
					JOINT LeftArm
					{
						OFFSET 3.01264 1.29090 -0.06579
						CHANNELS 3 Zrotation Yrotation Xrotation
						JOINT LeftForeArm
						{
							OFFSET 5.55680 -0.00000 0.00000
							CHANNELS 3 Zrotation Yrotation Xrotation
							JOINT LeftHand
							{
								OFFSET 3.63979 -0.00000 -0.00000
								CHANNELS 3 Zrotation Yrotation Xrotation
								JOINT LeftFingerBase
								{
									OFFSET 0 0 0
									CHANNELS 3 Zrotation Yrotation Xrotation
									JOINT LeftHandIndex1
									{
										OFFSET 0.56942 -0.00000 -0.00000
										CHANNELS 3 Zrotation Yrotation Xrotation
										End Site
										{
											OFFSET 0.45908 -0.00000 -0.00000
										}
									}
								}
								JOINT LThumb
								{
									OFFSET 0 0 0
									CHANNELS 3 Zrotation Yrotation Xrotation
									End Site
									{
										OFFSET 0.46609 -0.00000 0.46609
									}
								}
							}
						}
					}
				}
				JOINT RightShoulder
				{
					OFFSET 0 0 0
					CHANNELS 3 Zrotation Yrotation Xrotation
					JOINT RightArm
					{
						OFFSET -3.15796 1.37283 -0.36748
						CHANNELS 3 Zrotation Yrotation Xrotation
						JOINT RightForeArm
						{
							OFFSET -5.34339 -0.00000 0.00000
							CHANNELS 3 Zrotation Yrotation Xrotation
							JOINT RightHand
							{
								OFFSET -3.65101 -0.00000 -0.00000
								CHANNELS 3 Zrotation Yrotation Xrotation
								JOINT RightFingerBase
								{
									OFFSET 0 0 0
									CHANNELS 3 Zrotation Yrotation Xrotation
									JOINT RightHandIndex1
									{
										OFFSET -0.69425 -0.00000 -0.00000
										CHANNELS 3 Zrotation Yrotation Xrotation
										End Site
										{
											OFFSET -0.55972 -0.00000 -0.00000
										}
									}
								}
								JOINT RThumb
								{
									OFFSET 0 0 0
									CHANNELS 3 Zrotation Yrotation Xrotation
									End Site
									{
										OFFSET -0.56827 -0.00000 0.56827
									}
								}
							}
						}
					}
				}
			}
		}
	}
}
MOTION
Frames: 14
Frame Time: .0083333
16.1637 18.8802 22.0776 0 0 0 0 0 0 -21 0 0 0 0 0 0 0 0 0 0 0 0 0 0 21 0 0 0 0 0 0 0 0 0 0 0 0 0 0 0 0 0 0 0 0 0 0 -16 0 0 21 0 0 11 0 0 0 -8 0 0 0 0 0 0 0 0 0 0 0 0 0 0 0 0 0 0 0 0 8 0 0 0 0 0 0 0 0 0 0 0 0 0 0 0 0 0
16.1637 18.8802 22.0776 176.2540 4.7034 -175.2290 0.0000 0.0000 0.0000 -25.9287 -12.2663 -15.9819 1.8914 8.6362 24.6638 0.1498 -3.6877 -6.9603 0.0200 0.9131 2.5097 0.0000 0.0000 0.0000 15.2830 10.1253 -10.6993 -10.7517 -17.8114 61.9724 -1.2010 3.8890 22.4369 -0.1935 2.8330 -7.8141 -5.1196 2.1676 0.4198 -1.6421 2.9645 0.7143 1.1698 1.4942 0.3299 -2.5720 -1.4619 -13.6794 -1.5474 -1.3467 13.7754 -0.2097 -0.9725 6.4511 -0.0000 -0.0000 0.0000 -89.1282 6.0230 20.1168 13.3979 -21.8675 -2.5996 -0.0000 0.0000 -1.6829 25.4962 16.3594 7.6503 -7.1250 0.0000 -0.0000 -2.2143 47.9828 -0.1630 -0.0000 -0.0000 0.0000 88.5282 -4.8458 7.8317 -13.5720 22.1196 -2.6648 0.0000 0.0000 10.3937 -7.9702 25.2730 -3.4208 7.1250 -0.0000 -0.0000 13.1383 -5.0489 12.2651
16.1664 18.8748 21.9500 175.9540 4.2819 -175.3000 0.0000 0.0000 0.0000 -26.4008 -12.1066 -15.4060 1.8741 8.5988 24.5482 0.1467 -4.1406 -6.9686 0.0219 0.9565 2.6290 0.0000 0.0000 0.0000 14.7433 9.8475 -12.1843 -11.2084 -18.0356 63.4565 -0.8605 5.4121 20.2957 -0.2354 3.1225 -8.6201 -5.3587 1.9431 0.6261 -1.6741 2.6521 0.6534 1.2627 1.3438 0.1609 -2.5002 -1.4356 -13.4434 -1.6925 -1.3206 13.8093 -0.2640 -0.9722 6.4201 0.0000 0.0000 0.0000 -88.9215 6.0183 20.6439 13.7337 -22.3527 -2.7260 -0.0000 0.0000 -1.8911 26.6635 18.8133 9.1984 -7.1250 0.0000 -0.0000 -1.5452 50.8416 -0.2225 0.0000 0.0000 0.0000 88.6218 -5.0457 7.5029 -13.5584 22.0999 -2.6597 0.0000 0.0000 10.6268 -8.2001 25.4300 -3.5409 7.1250 -0.0000 -0.0000 13.0033 -4.8718 12.1765
16.1575 18.8690 21.8052 175.6590 4.3789 -175.4870 0.0000 0.0000 0.0000 -26.9611 -11.7713 -14.5207 1.8159 8.4716 24.1558 0.1589 -4.2393 -7.2401 0.0221 0.9597 2.6379 0.0000 0.0000 0.0000 14.1336 9.9987 -13.4949 -11.6624 -18.2442 64.9145 -0.5889 6.3311 18.1743 -0.1738 2.6853 -7.4039 -5.5330 2.0801 0.7111 -1.8186 2.8493 0.8227 1.2097 1.4421 0.2752 -2.2616 -1.5219 -13.8682 -1.7237 -1.4576 14.0182 -0.3308 -1.0297 6.5575 -0.0000 0.0000 0.0000 -88.4790 5.5561 21.9904 13.9656 -22.6855 -2.8148 -0.0000 0.0000 -2.7105 26.5274 24.6205 11.7479 -7.1250 0.0000 -0.0000 -3.2795 57.0710 -0.9706 -0.0000 0.0000 0.0000 88.9726 -5.0048 6.8215 -13.6843 22.2815 -2.7072 0.0000 0.0000 10.5455 -8.0161 25.1826 -3.4292 7.1250 -0.0000 -0.0000 13.1089 -5.1326 12.2148
16.1487 18.8737 21.6553 175.4980 4.5269 -175.6910 0.0000 0.0000 0.0000 -27.3695 -11.3155 -13.7232 1.7824 8.3973 23.9274 0.1758 -4.3975 -7.6035 0.0313 1.1413 3.1376 0.0000 0.0000 0.0000 13.6902 10.2943 -14.7460 -12.1068 -18.4354 66.3269 -0.4160 6.4020 16.1973 -0.0658 1.6555 -4.5544 -5.5452 2.0503 0.7517 -1.8098 2.7996 0.7240 1.2220 1.4208 0.1528 -2.4017 -1.3924 -13.0107 -1.7046 -1.3038 13.7499 -0.2785 -0.9608 6.3260 0.0000 -0.0000 0.0000 -88.4528 5.8159 22.3201 14.2301 -23.0627 -2.9176 -0.0000 0.0000 -2.8436 27.2958 19.4076 9.7301 -7.1250 0.0000 -0.0000 -1.0303 51.6027 -0.1676 0.0000 -0.0000 0.0000 88.9069 -5.6110 7.1136 -13.8301 22.4913 -2.7628 0.0000 0.0000 9.9577 -7.6816 24.2004 -3.1647 7.1250 -0.0000 -0.0000 13.2961 -6.1249 12.1410
16.1453 18.8780 21.5158 175.3300 4.3078 -175.7760 0.0000 0.0000 0.0000 -27.7387 -11.0643 -13.0960 1.7544 8.3347 23.7354 0.1813 -4.5598 -7.7402 0.0196 0.9048 2.4869 0.0000 0.0000 0.0000 13.2429 10.3246 -16.0999 -12.5111 -18.5985 67.5999 -0.2591 6.3570 14.0046 -0.0200 0.9125 -2.5080 -5.5923 1.9461 0.9772 -1.8467 2.6395 0.6036 1.2007 1.3489 -0.0879 -2.2162 -1.3881 -12.8170 -1.8824 -1.3218 13.8318 -0.3664 -0.9791 6.3164 -0.0000 0.0000 0.0000 -88.2600 5.8876 22.4630 14.4479 -23.3714 -3.0035 -0.0000 0.0000 -2.4357 25.7576 17.7396 8.3635 -7.1250 0.0000 -0.0000 -2.2249 49.5216 -0.2482 -0.0000 0.0000 0.0000 89.0213 -5.8867 6.5631 -13.7431 22.3663 -2.7296 0.0000 0.0000 9.9455 -7.1321 24.0846 -2.9231 7.1250 -0.0000 -0.0000 13.6290 -6.2900 12.4190
16.1426 18.8706 21.3846 175.0480 4.2329 -175.8100 0.0000 0.0000 0.0000 -28.1989 -10.8046 -12.6803 1.7463 8.3164 23.6791 0.1883 -4.7077 -7.8993 0.0043 0.4259 1.1703 0.0000 0.0000 0.0000 12.6632 10.4304 -17.4635 -12.8410 -18.7240 68.6310 -0.0858 6.8183 11.5713 -0.0350 1.2070 -3.3186 -5.8689 1.8513 1.1408 -1.8512 2.5033 0.6183 1.3461 1.2839 -0.1669 -2.2732 -1.3596 -13.2992 -1.7790 -1.2676 14.1995 -0.3258 -0.9545 6.5175 -0.0000 0.0000 0.0000 -88.1786 5.6857 23.1625 14.7737 -23.8299 -3.1339 -0.0000 0.0000 -3.0847 25.2502 19.3214 8.8694 -7.1250 0.0000 -0.0000 -3.0782 51.1433 -0.4662 -0.0000 0.0000 0.0000 89.0620 -5.8759 5.9059 -13.6921 22.2928 -2.7102 0.0000 0.0000 10.0473 -8.5369 26.5094 -3.8331 7.1250 -0.0000 -0.0000 12.8298 -3.7808 12.2731
16.1472 18.8654 21.2571 174.9140 4.0624 -175.8170 0.0000 0.0000 0.0000 -28.4307 -10.5108 -12.4393 1.7736 8.3777 23.8673 0.1922 -5.0314 -8.0360 0.0001 0.0789 0.2168 0.0000 0.0000 0.0000 12.3714 10.5158 -18.8497 -13.1057 -18.8200 69.4536 0.0354 7.1264 9.2926 -0.0791 1.8137 -4.9911 -6.1316 1.7374 1.2017 -1.7708 2.3511 0.7350 1.5776 1.2037 -0.0841 -2.2599 -1.3249 -13.6897 -1.7925 -1.1985 14.2389 -0.3289 -0.9201 6.5970 0.0000 -0.0000 0.0000 -88.1969 5.3094 24.1094 15.1323 -24.3301 -3.2803 -0.0000 0.0000 -3.7756 27.7142 22.6433 11.4337 -7.1250 0.0000 -0.0000 -1.3732 55.2045 -0.3441 0.0000 -0.0000 0.0000 89.0287 -5.8522 5.8771 -13.8391 22.5042 -2.7662 0.0000 0.0000 9.5486 -13.4819 29.5662 -6.7466 7.1250 -0.0000 -0.0000 10.0909 -0.1315 10.2277
16.1600 18.8593 21.1385 174.9150 3.4029 -175.6520 0.0000 0.0000 0.0000 -28.4410 -10.5631 -12.3354 1.8201 8.4809 24.1846 0.1893 -5.5102 -8.0969 0.0002 -0.0867 -0.2381 0.0000 0.0000 0.0000 12.2690 10.3052 -20.4472 -13.3191 -18.8943 70.1136 0.0675 6.5615 7.3691 -0.0850 1.8800 -5.1741 -6.2962 1.4671 1.1838 -1.6157 1.9846 0.7324 1.8359 1.0170 -0.0611 -2.0849 -1.3640 -13.3508 -2.1161 -1.2496 13.7753 -0.4596 -0.9535 6.3874 -0.0000 -0.0000 0.0000 -88.2468 5.0184 24.4966 15.3793 -24.6719 -3.3827 -0.0000 0.0000 -3.7381 29.6342 24.1721 13.1127 -7.1250 0.0000 -0.0000 0.3155 57.2902 0.0950 -0.0000 -0.0000 0.0000 88.8732 -5.9585 6.2871 -13.9588 22.6758 -2.8122 0.0000 0.0000 8.7555 -17.2228 30.1158 -8.8407 7.1250 -0.0000 -0.0000 7.9789 1.0221 8.1993
16.1684 18.8494 21.0222 174.8300 2.9877 -175.3210 0.0000 0.0000 0.0000 -28.4990 -10.7033 -12.3791 1.8660 8.5813 24.4940 0.1909 -6.1203 -8.2933 0.0056 0.4846 1.3317 0.0000 0.0000 0.0000 11.9146 10.4125 -22.1255 -13.4787 -18.9482 70.6059 0.0598 5.5590 5.7327 -0.0139 0.7604 -2.0897 -6.4568 1.2842 1.0808 -1.5211 1.7306 0.5227 2.0263 0.8950 -0.2074 -2.1244 -1.3244 -12.7447 -2.1938 -1.2095 13.5307 -0.4675 -0.9402 6.2058 0.0000 -0.0000 0.0000 -88.2169 5.0697 25.1740 15.7204 -25.1400 -3.5263 -0.0000 0.0000 -4.6819 28.9909 21.9070 11.6806 -7.1250 0.0000 -0.0000 0.1862 54.6702 0.0442 0.0000 -0.0000 0.0000 88.6933 -6.4270 6.7126 -14.0912 22.8649 -2.8634 0.0000 0.0000 7.9566 -17.2834 30.1885 -8.8924 7.1250 -0.0000 -0.0000 7.9517 1.1059 8.1824
16.1672 18.8406 20.8904 174.5470 3.1316 -175.2300 0.0000 0.0000 0.0000 -28.8676 -10.5745 -12.2300 1.9228 8.7035 24.8721 0.2167 -6.5381 -8.8420 0.0228 0.9744 2.6785 0.0000 0.0000 0.0000 11.3102 10.8864 -23.4549 -13.5813 -18.9821 70.9215 0.0743 5.1868 3.9108 -0.0003 -0.1191 0.3272 -6.7000 1.3054 1.1163 -1.5319 1.7453 0.3493 2.1463 0.9121 -0.4141 -2.2291 -1.2267 -12.4999 -2.2026 -1.0751 13.6369 -0.4404 -0.8874 6.1988 -0.0000 -0.0000 0.0000 -88.1166 5.1540 25.9508 16.0337 -25.5663 -3.6605 -0.0000 0.0000 -5.6135 27.6765 20.3689 10.3457 -7.1250 0.0000 -0.0000 -0.8480 52.7236 -0.1612 -0.0000 -0.0000 0.0000 88.6343 -6.8702 6.6191 -14.1788 22.9898 -2.8976 0.0000 0.0000 7.5163 -16.2938 30.9110 -8.5396 7.1250 -0.0000 -0.0000 8.5959 1.6587 8.9413
16.1627 18.8195 20.7470 174.4750 3.4739 -175.6130 0.0000 0.0000 0.0000 -29.1740 -10.2994 -11.5286 1.9844 8.8336 25.2762 0.2785 -6.5384 -9.7902 0.0129 0.7324 2.0129 0.0000 0.0000 0.0000 11.1002 11.3812 -24.1413 -13.6038 -18.9895 70.9909 0.0849 5.1609 1.8128 -0.0026 0.3293 -0.9048 -6.6815 1.3959 1.4304 -1.4965 1.8483 0.5149 2.1644 0.9607 -0.4289 -2.0882 -1.2031 -12.9095 -2.4670 -1.0123 13.8070 -0.5467 -0.8766 6.3211 -0.0000 -0.0000 0.0000 -88.0502 4.6901 25.7091 16.0857 -25.6368 -3.6830 -0.0000 0.0000 -4.5579 26.4643 20.9527 10.0937 -7.1250 0.0000 -0.0000 -2.2443 53.1242 -0.4487 -0.0000 -0.0000 0.0000 88.6177 -6.8203 6.4557 -14.2003 23.0204 -2.9060 0.0000 0.0000 7.1118 -16.4258 30.9389 -8.6186 7.1250 -0.0000 -0.0000 8.5235 1.7094 8.8716
16.1730 18.7926 20.6414 174.5810 2.9073 -175.2990 0.0000 0.0000 0.0000 -29.0435 -10.5638 -11.5274 2.0384 8.9456 25.6253 0.2916 -7.0094 -10.0994 0.0017 0.2671 0.7339 0.0000 0.0000 0.0000 11.0893 11.3274 -25.7757 -13.5870 -18.9840 70.9392 0.0642 4.8176 -0.1031 -0.0251 1.0233 -2.8129 -6.6295 1.2037 1.5088 -1.4159 1.5801 0.4776 2.2226 0.8274 -0.4893 -1.8636 -1.2310 -13.1918 -2.5935 -1.0576 13.8309 -0.6301 -0.8961 6.3746 0.0000 -0.0000 0.0000 -87.8558 4.2416 26.6277 16.4689 -26.1524 -3.8503 -0.0000 0.0000 -5.8981 27.8588 22.7516 11.5527 -7.1250 0.0000 -0.0000 -1.2471 55.3524 -0.3170 0.0000 -0.0000 0.0000 88.7290 -6.7237 6.2244 -14.2503 23.0915 -2.9256 0.0000 0.0000 6.9306 -17.0040 30.5768 -8.8421 7.1250 -0.0000 -0.0000 8.1540 1.4469 8.4425
16.1739 18.7766 20.5085 174.5520 2.7402 -175.3100 0.0000 0.0000 0.0000 -29.1947 -10.6527 -11.0671 2.0674 9.0050 25.8111 0.3344 -7.0712 -10.7088 0.0028 -0.3387 -0.9308 0.0000 0.0000 0.0000 10.9214 11.5669 -26.7336 -13.4698 -18.9453 70.5785 0.0308 4.5261 -1.8486 -0.0275 1.0700 -2.9414 -6.6642 1.1494 1.4975 -1.3616 1.5117 0.5609 2.3010 0.7884 -0.3933 -1.8244 -1.2463 -13.2922 -2.5601 -1.0832 13.7849 -0.6285 -0.9009 6.3768 0.0000 0.0000 0.0000 -87.7367 3.9337 26.9965 16.7147 -26.4802 -3.9593 -0.0000 0.0000 -5.9572 28.5035 23.7522 12.3377 -7.1250 0.0000 -0.0000 -0.8254 56.5775 -0.2343 0.0000 0.0000 0.0000 88.8155 -6.5724 5.5451 -14.1855 22.9993 -2.9002 0.0000 0.0000 7.3928 -17.0780 30.4898 -8.8599 7.1250 -0.0000 -0.0000 8.1022 1.3726 8.3774
